<svg width="1687" height="1687" viewBox="0 0 1687 1687" fill="none" xmlns="http://www.w3.org/2000/svg">
<rect width="1687" height="1687" fill="#0F1108"/>
<path d="M842.85 705.852C767.317 705.852 705.85 767.305 705.85 842.839C705.85 918.385 767.317 979.838 842.85 979.838C918.397 979.838 979.85 918.385 979.85 842.839C979.85 767.305 918.397 705.852 842.85 705.852ZM842.85 1134.09C682.264 1134.09 551.61 1003.44 551.61 842.839C551.61 682.252 682.264 551.599 842.85 551.599C1003.45 551.599 1134.09 682.252 1134.09 842.839C1134.09 1003.44 1003.45 1134.09 842.85 1134.09Z" fill="#FAFAF7"/>
<path d="M1076.76 1396.45C1148.32 1366.19 1212.56 1322.87 1267.72 1267.71C1275.36 1260.07 1282.76 1252.23 1289.94 1244.24V1446.16H1443.21V866.172C1443.5 858.412 1443.7 850.639 1443.7 842.839C1443.7 835.039 1443.5 827.279 1443.21 819.519V818.159H1443.16C1440.26 745.799 1424.61 675.519 1396.45 608.946C1366.18 537.386 1322.88 473.133 1267.72 417.972C1212.56 362.826 1148.32 319.506 1076.76 289.239C1002.62 257.892 923.931 241.999 842.851 241.999C761.771 241.999 683.077 257.892 608.944 289.239C537.397 319.506 473.141 362.826 417.985 417.972C362.829 473.133 319.516 537.386 289.251 608.946C257.897 683.066 242 761.759 242 842.839C242 923.919 257.897 1002.63 289.251 1076.75C316.141 1140.32 353.355 1198.12 400 1248.91V900.746C397.535 881.786 396.251 862.466 396.251 842.839C396.251 596.586 596.597 396.239 842.851 396.239C1089.1 396.239 1289.45 596.586 1289.45 842.839C1289.45 1089.11 1089.1 1289.45 842.851 1289.45C732.451 1289.45 631.304 1249.16 553.277 1182.55V1369.43C571.291 1379.33 589.851 1388.37 608.944 1396.45C683.077 1427.8 761.771 1443.69 842.851 1443.69C923.931 1443.69 1002.62 1427.8 1076.76 1396.45Z" fill="#FAFAF7"/>
</svg>
